<?xml version='1.0' encoding='utf-8'?>
<svg xmlns="http://www.w3.org/2000/svg" version="1.1" id="Layer_1" x="0px" y="0px" viewBox="0 0 2674 1328.5" enable-background="new 0 0 2674 1328.5"> <path fill="none" stroke="#EE1C24" stroke-width="41.25" stroke-linejoin="round" stroke-miterlimit="10" d="M57,687.5h277.3 l49.3-178.7l116,770.7l100-1228L669,806.2l70.7-116l428.4-0.5C997.2,535.3,876.3,379.1,912,225.5 c25.9-111.6,108.1-168.8,203.8-175.1c6.6-0.4,13.1-0.7,19.5-0.7c96.2,0,162.2,49.1,200.9,124.9c37-72.6,101.7-125.7,192.7-125.7 c8.6,0,17.5,0.5,26.6,1.5c104.7,11.3,180.7,71,204.9,165.2c38.1,148.5-75.8,315.2-251.5,474.4l460.1,1.5l65.3,118.7l73.3-738.7 l97.3,1196l116-752l48,170.7h248"/> </svg>